<svg width="280" height="95" viewBox="0 0 280 95" fill="none" xmlns="http://www.w3.org/2000/svg">
<path d="M263.647 61.4356C263.647 63.9354 264.307 65.1853 265.626 65.1853C267.501 65.1853 271.008 64.109 276.146 61.9564L279.271 66.6436C276.494 68.449 273.195 70.2544 269.376 72.0598C265.557 73.7958 262.224 74.6638 259.377 74.6638C253.266 74.6638 250.211 71.1571 250.211 64.1438V31.0214C249.169 31.0214 245.732 31.2644 239.899 31.7505L243.649 22.3762C244.899 22.5846 247.121 22.7582 250.315 22.897C250.176 19.7029 249.968 16.7517 249.69 14.0436L263.647 10.5022V22.7929C266.425 22.7234 271.876 22.2721 280 21.4388L275.938 32.1671C272.397 31.5422 268.3 31.1603 263.647 31.0214V61.4356Z" fill="#F9F6FF"/>
<path d="M218.07 21.5429C223.278 21.5429 227.305 23.1747 230.152 26.4383C232.999 29.6325 234.423 34.2849 234.423 40.3955V53.6237C234.423 60.4981 235.464 66.3657 237.548 71.2264V73.5179H219.216V71.2264C220.396 67.9628 220.986 63.2757 220.986 57.165V44.1452C220.986 40.1178 220.5 37.1666 219.528 35.2918C218.556 33.3475 216.473 32.3753 213.279 32.3753C210.084 32.3753 206.022 33.8336 201.092 36.75V53.832C201.092 61.1231 202.099 66.9212 204.113 71.2264V73.5179H185.885V71.2264C187.065 67.685 187.656 62.7549 187.656 56.4359V42.4787C187.656 34.2155 185.572 29.0423 181.406 26.9591V24.6676L198.28 21.4387L199.425 23.4177C199.981 25.0843 200.363 27.3063 200.571 30.0839C204.113 27.2369 207.168 25.119 209.737 23.7302C212.376 22.272 215.153 21.5429 218.07 21.5429Z" fill="#F9F6FF"/>
<path d="M148.659 75.4964C140.604 75.4964 134.25 73.1354 129.598 68.4136C125.015 63.6917 122.723 57.477 122.723 49.7692C122.723 42.0615 125.397 35.4648 130.743 29.9792C136.09 24.424 142.895 21.6465 151.158 21.6465C159.491 21.6465 165.845 23.9727 170.219 28.6251C174.664 33.2081 176.886 39.3881 176.886 47.1653C176.886 54.9424 174.212 61.6086 168.865 67.1637C163.519 72.7188 156.783 75.4964 148.659 75.4964ZM161.887 49.7692C161.887 43.0337 160.915 37.791 158.97 34.0413C157.026 30.2222 153.624 28.3126 148.763 28.3126C145.638 28.3126 143.208 29.0764 141.472 30.6041C140.361 32.2012 139.458 34.5968 138.764 37.791C138.069 40.9852 137.722 44.0753 137.722 47.0611C137.722 61.5739 142.34 68.8302 151.575 68.8302C154.353 68.8302 156.609 68.1011 158.345 66.6429C159.526 65.0458 160.394 62.6154 160.949 59.3518C161.574 56.0187 161.887 52.8246 161.887 49.7692Z" fill="#F9F6FF"/>
<path d="M86.4769 47.895C86.4769 60.0468 90.0183 66.1228 97.1011 66.1228C102.101 66.1228 108.663 64.0049 116.787 59.7691L119.495 64.0396C116.718 66.6088 113.037 69.1433 108.454 71.6431C103.941 74.1429 100.087 75.3928 96.8928 75.3928C89.0462 75.3928 82.8314 72.9972 78.2484 68.2059C73.7349 63.3452 71.4781 56.9915 71.4781 49.1449C71.4781 41.2289 74.3598 34.6669 80.1233 29.459C85.8867 24.1816 92.4834 21.543 99.9134 21.543C107.343 21.543 113.732 23.3137 119.079 26.855C116.718 30.8131 114.496 33.9031 112.412 36.1251C106.788 31.8199 101.406 29.6673 96.2678 29.6673C94.9485 29.6673 93.768 29.7715 92.7264 29.9798C90.921 31.6463 89.4281 34.0767 88.2476 37.2709C87.0672 40.4651 86.4769 44.0065 86.4769 47.895Z" fill="#F9F6FF"/>
<path d="M56.6609 80.8584C55.161 80.3168 53.4944 80.0459 51.6613 80.0459C49.8697 80.0459 48.4948 80.3792 47.5366 81.0459C46.9116 81.8375 46.5991 82.8791 46.5991 84.1706C46.5991 87.4204 48.0157 89.0452 50.8488 89.0452C53.182 89.0452 55.1193 88.087 56.6609 86.1705V80.8584ZM48.2865 94.4823C45.6617 94.4823 43.3494 93.6907 41.3496 92.1075C39.3497 90.5243 38.3498 88.2328 38.3498 85.233C38.3498 79.4418 42.5786 76.5462 51.0363 76.5462L56.5984 76.7962V72.984C56.5984 70.8175 56.0567 69.0677 54.9735 67.7344C53.8903 66.4012 52.2237 65.7346 49.9739 65.7346C49.4739 65.7346 48.8281 66.0054 48.0365 66.547C47.2449 67.047 46.5783 67.5678 46.0367 68.1094C44.3285 69.7343 42.9536 71.0675 41.912 72.1091C39.8288 69.6509 38.7039 67.172 38.5373 64.6722C43.8702 63.0056 48.3698 62.1724 52.0362 62.1724C55.7026 62.1724 58.7649 63.0265 61.223 64.7347C63.6812 66.4429 64.9102 69.1301 64.9102 72.7965V82.6082C64.9102 84.4831 65.2227 86.2746 65.8477 87.9828C66.4726 89.691 67.2434 90.8368 68.16 91.42L68.285 92.7949L59.3482 94.6698C58.6815 93.4199 58.0566 91.67 57.4733 89.4202C56.3901 90.5868 55.5151 91.4617 54.8485 92.045C54.1819 92.5866 53.2445 93.1282 52.0362 93.6699C50.8697 94.2115 49.6198 94.4823 48.2865 94.4823Z" fill="#F9F6FF"/>
<path d="M40.83 10.502C36.9415 9.39093 32.3585 8.83541 27.0811 8.83541C21.8732 8.83541 18.4707 8.90485 16.8736 9.04373C16.6653 11.0575 16.5611 18.7305 16.5611 32.0627L40.5176 31.5419L36.6637 41.3328H34.6847C31.3516 40.6384 27.8102 40.2912 24.0605 40.2912C20.3108 40.2912 17.811 40.3607 16.5611 40.4996V50.1863C16.5611 60.0466 17.1166 67.06 18.2276 71.2263V73.5178H-0.00012207V71.2263C1.18034 66.2267 1.77057 59.2481 1.77057 50.2905V23.9384C1.77057 14.9113 1.18034 7.89799 -0.00012207 2.89839V0.606905L45.8297 0.294434L42.8091 10.502H40.83Z" fill="#F9F6FF"/>
</svg>
